# xmcd
#
# Track frame offsets:
#	150
#	20802
#	40250
#	57587
#	72052
#	89107
#	106862
#	122827
#	139410
#	160015
#	179447
#	196772
#	211220
#	228387
#	246109
#	262032
#
# Disc length: 3715 seconds
#
# Revision: 1
# Processed by: cddbd v1.5.1PL2 Copyright (c) Steve Scherf et al.
# Submitted via: audiograbber 1.83.01
#
DISCID=eb0e8110
DTITLE=Various Artist - Sc3048
DYEAR=1900
DGENRE=Country
TTITLE0=Jackson, Alan - Betwee The Devil and Me
TTITLE1=Rimes, LeAnn - On The Side Of Angels
TTITLE2=Brandt, Paul - Little In Love, A
TTITLE3=Trevino, Rick - See Rock City
TTITLE4=Montgomery, John Michael - Angel In My Eyes
TTITLE5=Alabama - Of Course I'm Right
TTITLE6=Judd, Wynonna - When Love Starts Talking
TTITLE7=McCoy, Neal - If You Can Be Good Be Glad
TTITLE8=Jackson, Alan (Vocal) - Betwee The Devil and Me
TTITLE9=Rimes, LeAnn (Vocal) - On The Side Of Angels
TTITLE10=Brandt, Paul (Vocal) - Little In Love, A
TTITLE11=Trevino, Rick (Vocal) - See Rock City
TTITLE12=Montgomery, John Michael (Vocal) - Angel In My Eyes
TTITLE13=Alabama (Vocal) - Of Course I'm Right
TTITLE14=Judd, Wynonna (Vocal) - When Love Starts Talking
TTITLE15=McCoy, Neal (Vocal) - If You Can Be Good Be Glad
EXTD=
EXTT0=
EXTT1=
EXTT2=
EXTT3=
EXTT4=
EXTT5=
EXTT6=
EXTT7=
EXTT8=
EXTT9=
EXTT10=
EXTT11=
EXTT12=
EXTT13=
EXTT14=
EXTT15=
PLAYORDER=
